<svg xmlns="http://www.w3.org/2000/svg" viewBox="0 0 48 48">
  <path fill="#F6821F" d="M24 4C13 4 6 14 6 24c0 6 3 12 8 16l2-3c-4-3-6-8-6-13 0-8 6-16 14-16s14 8 14 16c0 5-2 10-6 13l2 3c5-4 8-10 8-16 0-10-7-20-18-20z"/>
  <path fill="#F6821F" d="M24 14c-6 0-10 5-10 10 0 3 1.5 6 4 8l2-3c-1.5-1.3-2.5-3.2-2.5-5 0-4 3-7 6.5-7s6.5 3 6.5 7c0 1.8-1 3.7-2.5 5l2 3c2.5-2 4-5 4-8 0-5-4-10-10-10z"/>
  <circle fill="#1A1A2E" cx="24" cy="24" r="5"/>
  <circle fill="#F6821F" cx="24" cy="24" r="2.5"/>
  <path fill="#1A1A2E" d="M22 29h4v12h-4z"/>
  <circle fill="#1A1A2E" cx="24" cy="44" r="3"/>
</svg>
