<!-- Auto-generated by scripts/build-icon-sprite.ts — do not edit manually. -->
<!-- Re-generate with: npx tsx scripts/build-icon-sprite.ts -->
<svg xmlns="http://www.w3.org/2000/svg" style="display:none">
  <symbol id="access" viewBox="0 0 16 16">
    <path d="M9.2 2.698a5.3 5.3 0 0 0-5.04 3.657l-.035.11H5.1l.022-.052a4.375 4.375 0 1 1 .308 3.835l-.05-.088H4.358l.06.123q.138.297.317.575A5.303 5.303 0 1 0 9.2 2.698"/><path d="M9.448 7.272 7.59 5.415l-.617.617 1.08 1.083H0l.52.872h8.63zm-.013 3.941-.618-.618 1.08-1.082H1.425l-.518-.875h10.088l.298.717z"/>
  </symbol>
  <symbol id="ai-gateway" viewBox="0 0 80 79">
    <path d="M69.3 39.7c-3.1 0-5.8 2.1-6.7 5H48.3V34h4.6l4.5-2.5c1.1.8 2.5 1.2 3.9 1.2 3.8 0 7-3.1 7-7s-3.1-7-7-7-7 3.1-7 7c0 .9.2 1.8.5 2.6L51.9 30h-3.5V18.8h-.1c-1.3-1-2.9-1.6-4.5-1.9h-.2c-1.9-.3-3.9-.1-5.8.6-.4.1-.8.3-1.2.5h-.1c-.1.1-.2.1-.3.2-1.7 1-3 2.4-4 4 0 .1-.1.2-.1.2l-.3.6c0 .1-.1.1-.1.2v.1h-.6c-2.9 0-5.7 1.2-7.7 3.2-2.1 2-3.2 4.8-3.2 7.7 0 .7.1 1.4.2 2.1-1.3.9-2.4 2.1-3.2 3.5s-1.2 2.9-1.4 4.5c-.1 1.6.1 3.2.7 4.7s1.5 2.9 2.6 4c-.8 1.8-1.2 3.7-1.1 5.6 0 1.9.5 3.8 1.4 5.6s2.1 3.2 3.6 4.4c1.3 1 2.7 1.7 4.3 2.2v-.1q2.25.75 4.8.6h.1c0 .1.1.1.1.1.9 1.7 2.3 3 4 4 .1.1.2.1.3.2h.1c.4.2.8.4 1.2.5 1.4.6 3 .8 4.5.7.4 0 .8-.1 1.3-.1h.1c1.6-.3 3.1-.9 4.5-1.9V62.9h3.5l3.1 1.7c-.3.8-.5 1.7-.5 2.6 0 3.8 3.1 7 7 7s7-3.1 7-7-3.1-7-7-7c-1.5 0-2.8.5-3.9 1.2l-4.6-2.5h-4.6V48.7h14.3c.9 2.9 3.5 5 6.7 5 3.8 0 7-3.1 7-7s-3.1-7-7-7m-7.9-16.9c1.6 0 3 1.3 3 3s-1.3 3-3 3-3-1.3-3-3 1.4-3 3-3m0 41.4c1.6 0 3 1.3 3 3s-1.3 3-3 3-3-1.3-3-3 1.4-3 3-3M44.3 72c-.4.2-.7.3-1.1.3-.2 0-.4.1-.5.1h-.2c-.9.1-1.7 0-2.6-.3-1-.3-1.9-.9-2.7-1.7-.7-.8-1.3-1.7-1.6-2.7l-.3-1.5v-.7q0-.75.3-1.5c.1-.2.1-.4.2-.7s.3-.6.5-.9c0-.1.1-.1.1-.2.1-.1.1-.2.2-.3s.1-.2.2-.3c0 0 0-.1.1-.1l.6-.6-2.7-3.5c-1.3 1.1-2.3 2.4-2.9 3.9-.2.4-.4.9-.5 1.3v.1c-.1.2-.1.4-.1.6-.3 1.1-.4 2.3-.3 3.4-.3 0-.7 0-1-.1-2.2-.4-4.2-1.5-5.5-3.2-1.4-1.7-2-3.9-1.8-6.1q.15-1.2.6-2.4l.3-.6c.1-.2.2-.4.3-.5 0 0 0-.1.1-.1.4-.7.9-1.3 1.5-1.9 1.6-1.5 3.8-2.3 6-2.3q1.05 0 2.1.3v-4.5c-.7-.1-1.4-.2-2.1-.2-1.8 0-3.5.4-5.2 1.1-.7.3-1.3.6-1.9 1s-1.1.8-1.7 1.3c-.3.2-.5.5-.8.8-.6-.8-1-1.6-1.3-2.6-.2-1-.2-2 0-2.9.2-1 .6-1.9 1.3-2.6.6-.8 1.4-1.4 2.3-1.8l1.8-.9-.7-1.9c-.4-1-.5-2.1-.4-3.1s.5-2.1 1.1-2.9q.9-1.35 2.4-2.1c.9-.5 2-.8 3-.7.5 0 1 .1 1.5.2 1 .2 1.8.7 2.6 1.3s1.4 1.4 1.8 2.3l4.1-1.5c-.9-2-2.3-3.7-4.2-4.9q-.6-.3-.9-.6c.4-.7 1-1.4 1.6-1.9.8-.7 1.8-1.1 2.9-1.3.9-.2 1.7-.1 2.6 0 .4.1.7.2 1.1.3V72zm25-22.3c-1.6 0-3-1.3-3-3 0-1.6 1.3-3 3-3s3 1.3 3 3c0 1.6-1.3 3-3 3"/>
  </symbol>
  <symbol id="analytics" viewBox="0 0 48 48">
    <path d="M23.25 39a14.245 14.245 0 0 1-3.75-27.99V7.912A17.25 17.25 0 1 0 40.087 28.5H36.99A14.3 14.3 0 0 1 23.25 39"/><path d="M24 4.5 22.5 6v18l1.5 1.5h18l1.5-1.5A19.52 19.52 0 0 0 24 4.5m1.5 18V7.567A16.53 16.53 0 0 1 40.432 22.5z"/>
  </symbol>
  <symbol id="argo-smart-routing" viewBox="0 0 64 64">
    <path fill-rule="evenodd" d="M5.5 13c0-3.88 3.165-7 7.037-7 3.873 0 7.038 3.12 7.038 7s-3.165 7-7.038 7C8.665 20 5.5 16.88 5.5 13m7.037-3C10.846 10 9.5 11.357 9.5 13s1.346 3 3.037 3c1.692 0 3.038-1.357 3.038-3s-1.346-3-3.038-3" clip-rule="evenodd"/><path d="m38.215 29.91.373-4.396-16.035-9.193-2.006 3.461zM14.5 41V23h-4v18zm19.855-4.897 1.993 3.451 4.545-2.608-1.866-3.52zm-4.945 7.434-1.997-3.457 4.339-2.486 1.994 3.454zm-2.603 1.493-4.336 2.489-2-3.462 4.34-2.486zm23.01-14.221a2.05 2.05 0 1 0 0-4.1 2.05 2.05 0 0 0 0 4.1"/><path fill-rule="evenodd" d="M49.817 20a8.684 8.684 0 0 0-8.684 8.579v.024c0 1.62.531 3.361 1.189 4.936.672 1.61 1.552 3.224 2.409 4.64a59 59 0 0 0 3.453 5.066h3.132v-.001l.314-.404a59 59 0 0 0 3.197-4.646c.874-1.416 1.773-3.03 2.459-4.642.67-1.575 1.214-3.32 1.214-4.95v-.023A8.684 8.684 0 0 0 49.817 20m1.606 16.093a53 53 0 0 1-1.656 2.515 53 53 0 0 1-1.614-2.5c-.798-1.32-1.572-2.747-2.14-4.11-.58-1.39-.877-2.549-.88-3.383a4.683 4.683 0 0 1 9.367 0c-.003.827-.303 1.98-.895 3.37-.58 1.361-1.368 2.789-2.182 4.108M12.537 58C8.665 58 5.5 54.88 5.5 51s3.165-7 7.037-7c3.873 0 7.038 3.12 7.038 7s-3.165 7-7.038 7M9.5 51c0 1.643 1.346 3 3.037 3 1.692 0 3.038-1.357 3.038-3s-1.346-3-3.038-3S9.5 49.357 9.5 51" clip-rule="evenodd"/>
  </symbol>
  <symbol id="artifacts" viewBox="0 0 512 512">
    <path stroke="currentColor" stroke-linecap="round" stroke-linejoin="round" stroke-width="32" d="M112 144h160l48 48h80v176a32 32 0 0 1-32 32H144a32 32 0 0 1-32-32V144Z"/><path stroke="currentColor" stroke-linecap="round" stroke-linejoin="round" stroke-width="32" d="M272 144v48h48"/><path stroke="currentColor" stroke-linecap="round" stroke-linejoin="round" stroke-width="32" d="M176 248h80m-80 72h160m-160-72v72m80-72v72"/>
  </symbol>
  <symbol id="browser-run" viewBox="0 0 64 65">
    <path d="M23.3 18.2a2.1 2.1 0 1 1-4.2 0 2.1 2.1 0 0 1 4.2 0m-6.7 0a2.1 2.1 0 1 1-4.2 0 2.1 2.1 0 0 1 4.2 0m13.3-.61a2.1 2.1 0 1 0 0 1.22zm28.1-1.6V12.7l-2-2h-1.39v5.29zm0 9.67v-4.99h-3.39v4.99zm0 9.67v-4.99h-3.39v4.99zM58 45v-4.99h-3.39V45zm-3.39 9.6H56l2-2v-2.93h-3.39zm-17.9-4H41v4h-4.29zm8.96 0h4.29v4h-4.29zm-8.96-29H41v4h-4.29zm8.96 0h4.29v4h-4.29zm4.29-6.9h-4.29v-4h4.29zm-8.96 0h-4.29v-4H41zm-8.96-4h-24l-2 2v39.9l2 2h24v-4h-22v-25h22v-4h-22v-6.9h22z"/>
  </symbol>
  <symbol id="cache" viewBox="0 0 48 48">
    <path d="M37.125 22.227a1.569 1.569 0 1 0 0-3.138 1.569 1.569 0 0 0 0 3.138"/><path fill-rule="evenodd" d="M11.59 6.55 12.75 6h22.5l1.16.55 6.75 8.25.34.95v.419l.006.005v9.64l-1.5 1.5H6l-1.5-1.5V15.75l.34-.95zM7.5 17.674v6.64h33.006V18.75H40.5v-1.076zm31.682-3H8.818L13.461 9h21.078l4.643 5.675Z" clip-rule="evenodd"/><path d="M37.125 36.907a1.569 1.569 0 1 0 0-3.138 1.569 1.569 0 0 0 0 3.139Z"/><path fill-rule="evenodd" d="m6 29.355-1.5 1.5v9.639l1.5 1.5h36.006l1.5-1.5v-9.639l-1.5-1.5zm1.5 9.639v-6.639h33.006v6.639z" clip-rule="evenodd"/>
  </symbol>
  <symbol id="cloudflare-one" viewBox="0 0 64 64">
    <path d="m30.29 40.55 2.83 2.83 10.49-10.49-10.49-10.48-2.83 2.83 5.66 5.65H6.01v4h29.94z"/><path d="m51.43 13.78-1.37-.19A27.92 27.92 0 0 1 34.69 6L33.5 4.66h-3L29.34 6A27.82 27.82 0 0 1 14 13.59l-1.37.19-1.72 2V27h4v-9.5A32.1 32.1 0 0 0 32 9a32.16 32.16 0 0 0 17.15 8.5v12.4C49.15 46.26 34 54.73 32 55.75 30.47 55 20.58 49.43 16.57 39h-4.24c4.41 13.43 17.42 20.09 18.08 20.42l.71.36h1.79l.71-.36c.8-.39 19.53-10 19.53-29.52V15.76z"/>
  </symbol>
  <symbol id="cloudflare-wan" viewBox="0 0 48 48">
    <path d="M43.5 22.5H31.567l11.003-4.575-1.148-2.775-11.047 4.56 8.453-8.46-2.123-2.123-8.415 8.423 4.575-10.988-2.775-1.155-4.59 11.04V4.5h-3v11.895L18 5.393 15.225 6.54l4.56 11.047-8.49-8.452-2.123 2.115 8.415 8.422L6.6 15.105l-1.155 2.767L16.5 22.5h-12v3h11.933L5.43 30l1.147 2.775 11.048-4.56-8.453 8.452 2.123 2.123 8.415-8.415-4.575 10.987 2.775 1.155L22.5 31.5v11.932h3V31.5L30 42.502l2.775-1.14-4.522-11.025 8.452 8.453 2.123-2.123-8.416-8.415L41.4 32.828l1.155-2.776L31.5 25.5h12zm-12 0v3l-1.14 2.76-2.107 2.107-2.753 1.088h-3l-2.753-1.14-2.107-2.108-1.14-2.76V22.5l1.14-2.76 2.107-2.107L22.5 16.5h3l2.753 1.14 2.107 2.107z"/>
  </symbol>
  <symbol id="containers" viewBox="0 0 512 512">
    <path fill="none" stroke-linecap="round" stroke-linejoin="round" stroke-width="32" d="M448 341.37V170.61A32 32 0 0 0 432.11 143l-152-88.46a47.94 47.94 0 0 0-48.24 0L79.89 143A32 32 0 0 0 64 170.61v170.76A32 32 0 0 0 79.89 369l152 88.46a48 48 0 0 0 48.24 0l152-88.46A32 32 0 0 0 448 341.37"/><path fill="none" stroke-linecap="round" stroke-linejoin="round" stroke-width="32" d="m69 153.99 187 110 187-110m-187 310v-200"/>
  </symbol>
  <symbol id="d1" viewBox="0 0 65 64">
    <path d="m23.6 22.2 3.03 1.75v3.5L23.6 29.2l-3.03-1.75v-3.5zM20.06 49l3.54-3.54L27.14 49l-3.54 3.54zm3.54-14.7c.593 0 1.17.176 1.67.506.493.33.878.798 1.1 1.35a3 3 0 0 1-.65 3.27c-.42.42-.954.705-1.54.821a3 3 0 0 1-1.73-.171 3.04 3.04 0 0 1-1.35-1.1 3 3 0 0 1-.506-1.67c0-.796.316-1.56.879-2.12a3 3 0 0 1 2.12-.879zM10.3 11.2l6.42-4.89 1.21-.37h29l1.19.39 6.61 4.89.82 1.61v38L55 52.21l-4.83 5.11-1.46.63h-31.7l-1.37-.54-5.48-5.11-.64-1.47v-38zm3.21 25.4 4.47 4.94h.056v4h-1.83l-2.7-3v7.39l4.26 4h30l3.7-3.91V42.3l-3.67 3.24h-18.6v-4h17.2l5.19-4.61v-7.44l-3.67 3.25h-18.7v-4h17.2l5.19-4.6v-6.92l-3.67 3.26h-31.6l-2.74-2.8v6.12l4.47 4.94h.056v4h-1.83l-2.7-3zm32.7-26.7h-27.6l-4.07 3.11 3.4 3.48h28.4l4-3.56z"/>
  </symbol>
  <symbol id="dns" viewBox="0 0 48 48">
    <path d="M35 26.98h-2.125v-8.574H21.148v-5.449h2.102l1.25-1.25V5l-1.25-1.25h-6.738L15.262 5v6.707l1.25 1.25h2.136v5.45H7.125v8.573H5l-1.25 1.25V35L5 36.25h6.742l1.25-1.25v-6.77l-1.25-1.25H9.625v-6.074h9.023v6.074h-2.136l-1.25 1.25V35l1.25 1.25h6.738L24.5 35v-6.77l-1.25-1.25h-2.102v-6.074h9.235v6.074h-2.121l-1.25 1.25V35l1.25 1.25H35L36.25 35v-6.77ZM17.762 6.25H22v4.238h-4.238Zm-7.27 27.5H6.25v-4.27h4.238Zm11.508 0h-4.238v-4.27H22Zm11.75 0h-4.238v-4.27h4.238Zm0 0"/>
  </symbol>
  <symbol id="durable-objects" viewBox="0 0 64 64">
    <path fill="#f6821f" fill-rule="evenodd" d="M32.214 6h-.202a26 26 0 1 0 .327 52q.266 0 .527-.014A26 26 0 0 0 58.012 32 26 26 0 0 0 32.865 6.014a10 10 0 0 0-.65-.013m-9.503 6.063A22 22 0 0 0 10.104 30h7.804q.068-1.79.252-3.51l3.998.24A46 46 0 0 0 21.91 30H30V10.519c-1.784.81-3.475 2.582-4.9 5.41q-.139.278-.274.567l-3.873-1.145q.276-.627.575-1.221c.363-.72.757-1.412 1.182-2.067M30 34h-8.09c.226 5.584 1.392 10.5 3.19 14.071 1.425 2.829 3.116 4.6 4.9 5.41zm-7.29 17.937a22 22 0 0 1-1.182-2.067c-2.131-4.233-3.393-9.795-3.62-15.87h-7.806A22 22 0 0 0 22.71 51.937m19.554-.472A22 22 0 0 0 53.921 34h-7.15a51 51 0 0 1-.26 3.589l-3.998-.24q.185-1.627.255-3.349H34v19.742c2.032-.641 3.973-2.486 5.577-5.671q.129-.255.252-.517l3.874 1.145q-.267.6-.553 1.171a23 23 0 0 1-.885 1.595M42.768 30H34V10.258c2.032.641 3.973 2.486 5.577 5.671 1.799 3.572 2.965 8.487 3.191 14.071m4.003 0c-.227-6.075-1.49-11.637-3.621-15.87a22 22 0 0 0-.885-1.595A22 22 0 0 1 53.921 30z" clip-rule="evenodd"/>
  </symbol>
  <symbol id="dynamic-workers" viewBox="0 0 64 64">
    <path d="M21 45.2432V46.7432L15.876 54H11.4531L17.1113 45.9863L11.3486 37.75H15.7578L21 45.2432Z" fill="black"/>
    <path d="M41 45.2432V46.7432L35.876 54H31.4531L37.1113 45.9863L31.3486 37.75H35.7578L41 45.2432Z" fill="black"/>
    <path d="M60 45.2432V46.7432L54.876 54H50.4531L56.1113 45.9863L50.3486 37.75H54.7578L60 45.2432Z" fill="black"/>
    <path d="M10.2412 41.8438L7.41895 45.9473L10.2529 50.1689L8.20703 53.252L3.74805 46.6074L3.75488 45.2451L8.21387 38.7598L10.2412 41.8438Z" fill="black"/>
    <path d="M30.2412 41.8438L27.4189 45.9473L30.2529 50.1689L28.207 53.252L23.748 46.6074L23.7549 45.2451L28.2139 38.7598L30.2412 41.8438Z" fill="black"/>
    <path d="M50.2412 41.8438L47.4189 45.9473L50.2529 50.1689L48.207 53.252L43.748 46.6074L43.7549 45.2451L48.2139 38.7598L50.2412 41.8438Z" fill="black"/>
    <path d="M40.2451 19.7178L30.3418 33H25.2314L35.1436 19.7061L25.0176 6H30.1104L40.2451 19.7178Z" fill="black"/>
    <path d="M47.8135 18.3506L48.001 18.6123L47.9961 20.5117L47.8086 20.7725L38.9961 33H34.0469L43.7383 19.5527L34.0596 6H38.9941L47.8135 18.3506Z" fill="black"/>
    <path d="M24.7988 10.1836L25.1787 10.751L19.1523 19.3779L25.208 28.2607L22.834 31.7822L14.998 20.2881L15.0068 18.7314L15.0078 18.4199L22.8242 7.22754L24.7988 10.1836Z" fill="black"/>
  </symbol>
  <symbol id="email-routing" viewBox="0 0 48 48">
    <path d="M42.038 10.568h-36l-1.5 1.5v23.864l1.5 1.5h36l1.5-1.5V12.068zm-18 15.397L10.005 13.568h28.072l-14.04 12.397ZM17.288 24l-9.75 8.61V15.36zm2.25 2.003 3.494 3.082h1.988l3.48-3.082 9.578 8.43H10.005zM30.788 24l9.75-8.61v17.25z"/>
  </symbol>
  <symbol id="gen-agent" viewBox="0 0 24 24">
    <path d="M21 9V7a2 2 0 0 0-2-2H5a2 2 0 0 0-2 2v2H1v6h2v1a2 2 0 0 0 2 2h14a2 2 0 0 0 2-2v-1h2V9h-2zM9.5 13a1.5 1.5 0 1 1 0-3 1.5 1.5 0 0 1 0 3zm5 0a1.5 1.5 0 1 1 0-3 1.5 1.5 0 0 1 0 3zm-2-9h-1V2h1v2zm-2.5 9.5h4v1h-4zM3 11h2v2H3zm16 0h2v2h-2z"/>
  </symbol>
  <symbol id="gen-browser" viewBox="0 0 24 24">
    <path d="M20 4H4a2 2 0 0 0-2 2v12a2 2 0 0 0 2 2h16a2 2 0 0 0 2-2V6a2 2 0 0 0-2-2zm0 14H4V9h16v9zm0-11H4V6h16v1zM6 7a.5.5 0 1 1-1 0 .5.5 0 0 1 1 0zm2 0a.5.5 0 1 1-1 0 .5.5 0 0 1 1 0zm2 0a.5.5 0 1 1-1 0 .5.5 0 0 1 1 0z"/>
  </symbol>
  <symbol id="gen-database" viewBox="0 0 24 24">
    <path d="M12 2C6.48 2 2 4.24 2 7v10c0 2.76 4.48 5 10 5s10-2.24 10-5V7c0-2.76-4.48-5-10-5zm0 2c4.42 0 8 1.79 8 3s-3.58 3-8 3-8-1.79-8-3 3.58-3 8-3zm0 16c-4.42 0-8-1.79-8-3v-2.23C5.61 16.4 8.71 17 12 17s6.39-.6 8-1.73V17c0 1.21-3.58 3-8 3zm0-6c-4.42 0-8-1.79-8-3V9.23C5.61 10.4 8.71 11 12 11s6.39-.6 8-1.77V11c0 1.21-3.58 3-8 3z"/>
  </symbol>
  <symbol id="gen-external-api" viewBox="0 0 24 24">
    <path d="M20 3H4a1 1 0 0 0-1 1v4a1 1 0 0 0 1 1h16a1 1 0 0 0 1-1V4a1 1 0 0 0-1-1zm-1 4H5V5h14v2zm1 5H4a1 1 0 0 0-1 1v4a1 1 0 0 0 1 1h16a1 1 0 0 0 1-1v-4a1 1 0 0 0-1-1zm-1 4H5v-2h14v2zm-5 3-3 3-3-3h2v-2h2v2h2z"/>
  </symbol>
  <symbol id="gen-internet" viewBox="0 0 24 24">
    <path d="M12 2C6.48 2 2 6.48 2 12s4.48 10 10 10 10-4.48 10-10S17.52 2 12 2zm-1 17.93c-3.95-.49-7-3.85-7-7.93 0-.62.08-1.21.21-1.79L9 15v1c0 1.1.9 2 2 2v1.93zm6.9-2.54c-.26-.81-1-1.39-1.9-1.39h-1v-3c0-.55-.45-1-1-1H8v-2h2c.55 0 1-.45 1-1V7h2c1.1 0 2-.9 2-2v-.41c2.93 1.19 5 4.06 5 7.41 0 2.08-.8 3.97-2.1 5.39z"/>
  </symbol>
  <symbol id="gen-mobile" viewBox="0 0 24 24">
    <path d="M17 1H7a2 2 0 0 0-2 2v18a2 2 0 0 0 2 2h10a2 2 0 0 0 2-2V3a2 2 0 0 0-2-2zm0 18H7V5h10v14zm-5 2a1 1 0 1 1 0-2 1 1 0 0 1 0 2zm3-17H9V3h6v1z"/>
  </symbol>
  <symbol id="gen-server" viewBox="0 0 24 24">
    <path d="M20 3H4a1 1 0 0 0-1 1v4a1 1 0 0 0 1 1h16a1 1 0 0 0 1-1V4a1 1 0 0 0-1-1zM7 7a1 1 0 1 1 0-2 1 1 0 0 1 0 2zm3 0a1 1 0 1 1 0-2 1 1 0 0 1 0 2zm10-1H13V5h7v1zM20 9H4a1 1 0 0 0-1 1v4a1 1 0 0 0 1 1h16a1 1 0 0 0 1-1v-4a1 1 0 0 0-1-1zm-13 4a1 1 0 1 1 0-2 1 1 0 0 1 0 2zm3 0a1 1 0 1 1 0-2 1 1 0 0 1 0 2zm10-1h-7v-1h7v1zm0 4H4a1 1 0 0 0-1 1v4a1 1 0 0 0 1 1h16a1 1 0 0 0 1-1v-4a1 1 0 0 0-1-1zm-13 4a1 1 0 1 1 0-2 1 1 0 0 1 0 2zm3 0a1 1 0 1 1 0-2 1 1 0 0 1 0 2zm10-1h-7v-1h7v1z"/>
  </symbol>
  <symbol id="gen-user" viewBox="0 0 24 24">
    <path d="M12 12a5 5 0 1 0 0-10 5 5 0 0 0 0 10zm0 2c-5.33 0-8 2.67-8 8h16c0-5.33-2.67-8-8-8z"/>
  </symbol>
  <symbol id="hyperdrive" viewBox="0 0 64 65">
    <path d="M42.249 18.516a3.5 3.5 0 1 1 0 7 3.5 3.5 0 0 1 0-7"/><path fill-rule="evenodd" d="M28.046 17.91c5.738-4.997 14.495-10.037 26.416-10.037l2 2c0 11.921-5.04 20.678-10.038 26.416q-.595.682-1.186 1.31l.907 9.625-.57 1.595-7.662 7.733-3.392-1.745 1.274-7.45-1.98-2.976-.934-.935-4.269 3.202-2.614-.186-8.486-8.485-.185-2.614 3.202-4.27-.574-.573-2.977-1.98-7.45 1.275-1.745-3.392 7.733-7.662 1.595-.57 9.626.906q.627-.591 1.31-1.186m-4.66 16.04 6.638 6.64-2.424 1.817-6.033-6.032zm12.27 6.615L23.77 28.679a35 35 0 0 1 1.067-1.494 41.5 41.5 0 0 1 5.837-6.258c3.195-2.783 7.378-5.55 12.596-7.279.279.198.6.444.954.734a42 42 0 0 1 2.99 2.739 42 42 0 0 1 2.74 2.99q.436.534.733.954c-1.729 5.218-4.496 9.401-7.279 12.597a41.5 41.5 0 0 1-6.258 5.837c-.571.43-1.076.785-1.493 1.066m2.508 3.132 1.401 2.107.306 1.445-.34 1.986 2.544-2.567-.525-5.57a44 44 0 0 1-1.993 1.596c-.514.387-.982.72-1.393 1.003M21.641 24.779c-.386.513-.72.982-1.003 1.392l-2.107-1.401-1.444-.306-1.987.34 2.567-2.544 5.57.525a44 44 0 0 0-1.596 1.994m30.765-12.85c-.082 1.5-.254 2.94-.5 4.322a53 53 0 0 0-1.863-1.958 52 52 0 0 0-1.96-1.864 36 36 0 0 1 4.323-.5M20.168 44.168c-1.6-1.6-3.521-2.134-5.419-1.551-1.692.519-3.04 1.829-4.013 3.15-1.004 1.364-1.792 2.987-2.288 4.521-.474 1.47-.77 3.143-.494 4.525l1.568 1.569c1.383.276 3.055-.02 4.525-.495 1.535-.495 3.157-1.284 4.52-2.287 1.323-.974 2.633-2.321 3.152-4.013.582-1.898.05-3.819-1.551-5.42m-7.35 7.913q-.419.135-.784.22.086-.364.221-.784c.378-1.172.982-2.4 1.702-3.378.751-1.02 1.46-1.543 1.965-1.698.3-.093.722-.14 1.417.555s.648 1.117.556 1.418c-.155.506-.679 1.214-1.698 1.964-.979.72-2.206 1.324-3.378 1.703" clip-rule="evenodd"/>
  </symbol>
  <symbol id="images" viewBox="0 0 48 48">
    <path d="M42 8.94H6l-1.5 1.5v29.903l1.5 1.5h36l1.5-1.5V10.44zm-1.5 3v14.018l-6-4.913-1.965.06-3.81 3.51-4.073-3-1.852.06-10.5 8.775-4.8-3.3V11.94zm-33 26.903V30.81l3.975 2.775 1.815-.082 10.523-8.753 4.125 3 1.905-.105 3.75-3.472 6.907 5.655v9zm6.81-14.723a3 3 0 1 0 0-6 3 3 0 0 0 0 6"/>
  </symbol>
  <symbol id="kv" viewBox="0 0 64 64">
    <path fill="#f6821f" d="M22 44.95h-7v-4h7zm-7-8h7v-4h-7zm7-8h-7v-4h7zm4 16h23v-4H26zm23-8H26v-4h23zm-23-8h23v-4H26z"/><path fill="#f6821f" fill-rule="evenodd" d="m6 12 2-2h19l1.675.907 3.408 5.225H56l2 2V52l-2 2H8l-2-2zm4 2v36h44V20.132H31l-1.675-.908L25.917 14z" clip-rule="evenodd"/>
  </symbol>
  <symbol id="link" viewBox="0 0 24 24">
    <path d="M7.76 21a6.76 6.76 0 0 1-4.78-11.54l1.41-1.41a1 1 0 1 1 1.42 1.41L4.4 10.88a4.76 4.76 0 1 0 6.73 6.73l2.83-2.83a4.76 4.76 0 0 0-1.06-7.55 1 1 0 0 1 1-1.73 6.76 6.76 0 0 1 1.51 10.74L12.54 19.2A6.71 6.71 0 0 1 7.76 21zm8.48-6.46a1 1 0 0 1-.71-.29 1 1 0 0 1 0-1.42l1.41-1.41a4.76 4.76 0 1 0-6.73-6.73L7.38 7.52a4.76 4.76 0 0 0 1.06 7.55 1 1 0 1 1-1 1.73 6.76 6.76 0 0 1-1.51-10.74L8.86 3.62a6.76 6.76 0 0 1 9.56 9.56l-1.41 1.41a1 1 0 0 1-.77.95z"/>
  </symbol>
  <symbol id="magic-transit" viewBox="0 0 16 16">
    <path d="m10.75 9.116-1.83-.991 1.69-.914.14-.078-.509-.892-1.775 1.085.049-2.076h-1.03l.05 2.076-1.776-1.085-.509.894 1.83.99-1.83.991.509.893 1.775-1.085L7.485 11h1.03l-.05-2.076 1.776 1.085z"/><path fill-rule="evenodd" d="M8.372 1.164h-.745l-.287.322a6.9 6.9 0 0 1-3.852 1.91l-.343.05-.428.495v3.535c0 2.463 1.19 4.292 2.375 5.498 1.181 1.204 2.386 1.822 2.507 1.882l.177.09h.447l.18-.09c.119-.06 1.324-.677 2.506-1.882 1.184-1.206 2.375-3.035 2.375-5.498V3.942l-.428-.495-.343-.05a6.9 6.9 0 0 1-3.852-1.911zM3.717 4.373A7.9 7.9 0 0 0 8 2.239a7.9 7.9 0 0 0 4.284 2.135v3.102c0 2.115-1.018 3.706-2.089 4.798A9.4 9.4 0 0 1 8 13.938a9.4 9.4 0 0 1-2.194-1.664C4.735 11.182 3.717 9.59 3.717 7.476z"/>
  </symbol>
  <symbol id="notifications" viewBox="0 0 16 16">
    <path d="M12.35 2.861a3.7 3.7 0 0 0-1.42-.614l.196-.98a4.682 4.682 0 0 1 3.531 6.057l-.95-.313a3.68 3.68 0 0 0-1.357-4.15"/><path fill-rule="evenodd" d="m7.17 1.63.88-.028 4.626 8.01-.465.75-5.246-.339-.302.174L8.31 13.05l-.183.683-1.732 1-.683-.183-1.647-2.853-.65.375-.683-.183-1.625-2.814.183-.683 3.55-2.05zM6.163 9.331 5.038 7.383 2.223 9.008l1.125 1.948zM4.93 11.197l1.397 2.42.866-.5-1.397-2.42zm6.412-1.894-4.198-.27L5.788 6.68l1.864-3.77 3.69 6.392z"/><path d="M11.763 3.67a2.7 2.7 0 0 0-1.007-.437l-.202.979a1.68 1.68 0 0 1 1.271 2.116l.96.281a2.68 2.68 0 0 0-1.022-2.938z"/>
  </symbol>
  <symbol id="pages" viewBox="0 0 48 48">
    <path d="m21.375 7.5-1.95 3H9v27h8.7l-.525 3H7.5L6 39V9l1.5-1.5zm9.45 0H40.5L42 9v30l-1.5 1.5H26.625l1.95-3H39v-27h-8.7z"/><path d="M21.45 28.5h-8.7l-1.275-2.325 15.6-24 2.7 1.125-3.225 16.2h8.7l1.275 2.325-15.6 24-2.7-1.125zM11.175 13.725a1.05 1.05 0 1 0 0-2.1 1.05 1.05 0 0 0 0 2.1m2.775 0a1.05 1.05 0 1 0 0-2.1 1.05 1.05 0 0 0 0 2.1m2.775 0a1.05 1.05 0 1 0 0-2.1 1.05 1.05 0 0 0 0 2.1"/>
  </symbol>
  <symbol id="pipelines" viewBox="0 0 64 64">
    <g fill="#f6821f" clip-path="url(#clip0_1_19)"><path fill-rule="evenodd" d="M60 34H32v-4h28z" clip-rule="evenodd"/><path fill-rule="evenodd" d="m59.38 32-4.869-4.869 2.263-2.262L63.905 32l-7.131 7.131-2.263-2.262z" clip-rule="evenodd"/><path d="M13.212 17.863c-.927 2.433-1.63 5.573-1.975 9.137H7.22c.36-4.015 1.145-7.65 2.254-10.561.775-2.034 1.746-3.817 2.926-5.127S15.13 9 17 9h25c1.87 0 3.42 1.002 4.6 2.312s2.151 3.093 2.926 5.127C50.635 19.35 51.42 22.985 51.78 27h-4.017c-.346-3.564-1.048-6.704-1.975-9.137-.673-1.767-1.426-3.06-2.16-3.874C42.893 13.173 42.34 13 42 13H22.857c.634 1.015 1.189 2.179 1.669 3.439C26.08 20.519 27 26.022 27 32s-.92 11.48-2.474 15.561c-.48 1.26-1.035 2.424-1.67 3.439H42c.34 0 .893-.173 1.628-.989.734-.815 1.487-2.107 2.16-3.874.927-2.433 1.63-5.573 1.975-9.137h4.017c-.36 4.015-1.145 7.65-2.254 10.561-.775 2.034-1.746 3.817-2.926 5.127S43.87 55 42 55H17c-1.87 0-3.42-1.002-4.6-2.312s-2.151-3.093-2.926-5.127C8.365 44.65 7.58 41.015 7.22 37h4.017c.345 3.564 1.048 6.704 1.975 9.137.673 1.767 1.426 3.06 2.16 3.874.735.816 1.288.989 1.628.989s.893-.173 1.628-.989c.734-.815 1.487-2.107 2.16-3.874C22.128 42.617 23 37.62 23 32s-.871-10.617-2.212-14.137c-.673-1.767-1.426-3.06-2.16-3.874C17.893 13.173 17.34 13 17 13s-.893.173-1.628.989c-.734.815-1.487 2.107-2.16 3.874M0 32.25a2.25 2.25 0 1 0 4.5 0 2.25 2.25 0 0 0-4.5 0"/><path d="M7 32.25a2.25 2.25 0 1 0 4.5 0 2.25 2.25 0 0 0-4.5 0m7 0a2.25 2.25 0 1 0 4.5 0 2.25 2.25 0 0 0-4.5 0"/></g><defs><clipPath id="clip0_1_19"><path fill="#fff" d="M0 0h64v64H0z"/></clipPath></defs>
  </symbol>
  <symbol id="queues" viewBox="0 0 40 40">
    <path d="M11.154 19.894 5.33 14.21l-1.612 1.65 2.656 2.594H1.942a1.442 1.442 0 1 0 0 2.884h4.433L3.72 23.927l1.61 1.653 5.823-5.685Zm28.352 0-5.823-5.685-1.612 1.65 2.656 2.594h-4.433a1.442 1.442 0 1 0 0 2.884h4.433l-2.655 2.591 1.611 1.651z"/><rect x="7.911" y="7" rx="1.442"/><rect x="7.911" y="30.07" rx="1.442"/><path d="M13.679 14.21c.796 0 1.442.645 1.442 1.441v8.651a1.442 1.442 0 1 1-2.884 0v-8.65c0-.797.646-1.443 1.442-1.443Zm5.767 0c.797 0 1.442.645 1.442 1.441v8.651a1.442 1.442 0 1 1-2.884 0v-8.65c0-.797.646-1.443 1.442-1.443Zm5.768 0c.796 0 1.442.645 1.442 1.441v8.651a1.442 1.442 0 1 1-2.884 0v-8.65c0-.797.645-1.443 1.442-1.443Z"/>
  </symbol>
  <symbol id="r2" viewBox="0 0 40 40">
    <path fill-rule="evenodd" d="M30.289 6.423c-2.43-.813-5.958-1.362-9.977-1.362-4.018 0-7.545.549-9.976 1.362-1.228.41-2.033.842-2.48 1.195q-.14.111-.204.18c.052.171.196.395.562.67.524.394 1.372.783 2.563 1.119 2.368.666 5.731 1.023 9.536 1.023s7.167-.357 9.535-1.023c1.191-.336 2.04-.725 2.563-1.119.366-.275.51-.499.562-.67a2 2 0 0 0-.204-.18c-.447-.353-1.252-.784-2.48-1.195m-20.24 5.624c-.885-.25-1.71-.552-2.424-.922v4.393c0 .196.097.514.625.941.535.433 1.391.869 2.576 1.252 2.36.764 5.71 1.222 9.486 1.222 3.778 0 7.128-.458 9.487-1.222 1.185-.383 2.041-.82 2.576-1.252.528-.427.625-.745.625-.94v-4.394c-.715.37-1.539.673-2.424.922-2.7.76-6.336 1.124-10.264 1.124s-7.564-.364-10.263-1.124m25.576 3.471V7.622c0-2.829-6.856-5.122-15.313-5.122C11.857 2.5 5 4.793 5 7.622v24.756c0 2.829 6.856 5.122 15.313 5.122 8.456 0 15.312-2.293 15.312-5.122zM33 19.134c-.7.393-1.505.726-2.375 1.008-2.708.877-6.358 1.352-10.313 1.352-3.954 0-7.604-.475-10.312-1.352-.87-.282-1.676-.615-2.375-1.008v4.28c0 .196.097.514.625.942.535.432 1.391.868 2.576 1.252 2.36.763 5.71 1.221 9.486 1.221 3.778 0 7.128-.458 9.487-1.221 1.185-.384 2.041-.82 2.576-1.252.528-.428.625-.746.625-.941v-4.28Zm-23 8.904c-.87-.281-1.676-.615-2.375-1.007v5.143c.044.048.116.117.231.208.447.353 1.252.785 2.48 1.195 2.43.813 5.958 1.362 9.976 1.362s7.546-.549 9.977-1.362c1.228-.41 2.033-.842 2.48-1.195a2 2 0 0 0 .231-.208v-5.143c-.7.392-1.505.726-2.375 1.007-2.708.877-6.358 1.352-10.313 1.352-3.954 0-7.604-.475-10.312-1.352m23.06 4.06-.01.016zm-25.495 0 .01.016zm3.997-15.726c.725 0 1.313-.573 1.313-1.28s-.588-1.281-1.313-1.281c-.724 0-1.312.573-1.312 1.28s.588 1.281 1.313 1.281Zm1.313 6.83c0 .706-.588 1.28-1.313 1.28-.724 0-1.312-.574-1.312-1.28 0-.708.588-1.281 1.313-1.281.724 0 1.312.573 1.312 1.28Zm-1.313 9.176c.725 0 1.313-.573 1.313-1.28s-.588-1.28-1.313-1.28c-.724 0-1.312.572-1.312 1.28 0 .707.588 1.28 1.313 1.28Z" clip-rule="evenodd"/>
  </symbol>
  <symbol id="rules" viewBox="0 0 48 48">
    <path d="M39 4.5H9L7.5 6v35.85l1.5 1.5h30l1.5-1.5V6zm-1.5 35.85h-27V7.5h27z"/><path d="M23.895 11.033H13.89v3h10.005zm10.133 6.269H13.89v3h20.138zm0 6.271H13.89v3h20.138z"/>
  </symbol>
  <symbol id="ssl" viewBox="0 0 48 48">
    <path d="M23.437 11.88H12.03v3h11.407z"/><path d="M43.5 24.383a9.11 9.11 0 0 0-7.5-8.955V7.32l-1.5-1.5H7.35l-1.5 1.5v32.955l1.5 1.5h19.5V43.5l2.602 1.02 4.898-5.295 4.897 5.295 2.625-1.02V29.543a9.05 9.05 0 0 0 1.628-5.16m-3 0a6.113 6.113 0 1 1-6.113-6.113 6.12 6.12 0 0 1 6.113 6.113M8.85 38.775V8.82H33v6.57A9.1 9.1 0 0 0 27.885 18h-15.81v3H25.92a9.1 9.1 0 0 0-.638 3H12.075v3H25.65c.272.91.684 1.774 1.222 2.558v9.217zM35.467 36l-1.095-1.185L33.277 36l-3.405 3.675v-7.38a9.04 9.04 0 0 0 9 0v7.372z"/>
  </symbol>
  <symbol id="stream" viewBox="0 0 48 48">
    <path d="M44.903 22.632a8.8 8.8 0 0 0-6-2.04 14.475 14.475 0 0 0-27.75-3.443A10.22 10.22 0 0 0 3.9 19.542a10.95 10.95 0 0 0-3.9 8.25 10.68 10.68 0 0 0 10.635 10.687h28.41a9 9 0 0 0 5.858-15.847m-5.858 12.847H10.642A7.68 7.68 0 0 1 3 27.814a7.94 7.94 0 0 1 2.827-6 7.16 7.16 0 0 1 4.673-1.687q.718 0 1.425.127l1.305.233.383-1.268A11.467 11.467 0 0 1 36 22.264l.075 1.74 1.695-.27a6.18 6.18 0 0 1 5.182 1.215A6.08 6.08 0 0 1 45 29.524a6 6 0 0 1-5.955 5.955"/><path fill-rule="evenodd" d="m19.29 18.668 2.264-1.29L32.87 24.08l.002 2.58-11.314 6.73-2.267-1.29V18.668Zm3 2.632v8.162l6.876-4.09z" clip-rule="evenodd"/>
  </symbol>
  <symbol id="vectorize" viewBox="0 0 48 48">
    <path fill="#f6821f" fill-rule="evenodd" d="M7.388 36.971V5.77h3v5.282h2.957l1.5-1.5h1.5l1.5 1.5h2.795l1.5-1.5h1.5l1.5 1.5h12.323V5.77h3v31.201h1.512v2.873h1.52v3H4.505v-3H5.88V36.97zm5.958-22.914 1.5 1.5h1.499l1.499-1.5h2.796l1.5 1.5h1.5l1.498-1.5h12.325v6.066h-3.85l-1.499-1.5h-1.5l-1.5 1.5h-11.27l-1.5-1.5h-1.499l-1.5 1.5h-2.958v-6.066zm0 9.072h-2.959v5.931h11.377l1.499-1.5h1.5l1.499 1.5h2.853l1.5-1.5h1.5l1.499 1.5h3.85v-5.93h-3.85l-1.5 1.5h-1.5l-1.5-1.5h-11.27l-1.5 1.5h-1.499zm8.417 8.936 1.5 1.5h1.5l1.5-1.5h2.852l1.5 1.5h1.5l1.499-1.5h3.85v4.906H10.387v-4.906z" clip-rule="evenodd"/>
  </symbol>
  <symbol id="warp-client" viewBox="0 0 48 49">
    <path d="M24 5.04a19.5 19.5 0 1 0 19.5 19.5A19.575 19.575 0 0 0 24 5.04m0 3a16.575 16.575 0 0 1 16.5 16.5 16.8 16.8 0 0 1-2.175 8.175c.302-1.125.453-2.285.45-3.45a14.775 14.775 0 0 0-29.55 0 13.2 13.2 0 0 0 .45 3.45A16.8 16.8 0 0 1 7.5 24.54 16.575 16.575 0 0 1 24 8.04m-5.25 30.6a6.974 6.974 0 1 1 10.5 0 5.25 5.25 0 0 0-10.5 0M24 24.015a9.976 9.976 0 0 0-9.975 10.05c-.024.53.026 1.06.15 1.575a11.5 11.5 0 0 1-1.95-6.375 11.775 11.775 0 0 1 23.55 0 11.47 11.47 0 0 1-1.95 6.375 5.6 5.6 0 0 0 .15-1.575A9.974 9.974 0 0 0 24 24.015M21.75 38.79A2.25 2.25 0 1 1 24 41.04a2.174 2.174 0 0 1-2.25-2.25"/>
  </symbol>
  <symbol id="workers-ai" viewBox="0 0 20 20">
    <path d="M10.72 1.5H9.265v3.198l1.455.004zM7.36 3.347l1.516 1.517-1.032 1.025-1.513-1.513 1.03-1.029ZM4.485 6.28h3.202l-.005 1.455H4.485zm1.848 3.36 1.515-1.516 1.026 1.032-1.512 1.512-1.03-1.029Zm2.932 2.875V9.313l1.455.005v3.197zm3.36-1.845-1.517-1.517 1.032-1.026 1.514 1.514zM15.5 7.735h-3.202l.005-1.455H15.5zm-1.847-3.359-1.516 1.516-1.025-1.032 1.513-1.513 1.028 1.03ZM2 1.829v.82h-.822v1.315H2v.821h1.314v-.82h.821V2.65h-.821v-.821zm0 12.842v-1.5H.5v-1.314H2v-1.499h1.314v1.499h1.5v1.314h-1.5v1.5z"/>
  </symbol>
  <symbol id="workers-vpc" viewBox="0 0 48 49">
    <path d="m18.63 37.418-9.645-12.9 9.592-12.533-1.852-2.527L5.917 23.595l-.015 1.808 10.86 14.542z"/><path d="M21.997 6.503h-3.712l13.387 18.3-13.072 17.7h3.735L35.4 24.81z"/><path d="M29.175 6.503h-3.758l13.598 18.082-13.598 17.918h3.765l12.908-17.01v-1.808z"/>
  </symbol>
  <symbol id="workers" viewBox="0 0 48 49">
    <path d="m18.63 37.418-9.645-12.9 9.592-12.533-1.852-2.527L5.917 23.595l-.015 1.808 10.86 14.542z"/><path d="M21.997 6.503h-3.712l13.387 18.3-13.072 17.7h3.735L35.4 24.81z"/><path d="M29.175 6.503h-3.758l13.598 18.082-13.598 17.918h3.765l12.908-17.01v-1.808z"/>
  </symbol>
  <symbol id="workflows" viewBox="0 0 48 49">
    <path d="m18.63 37.418-9.645-12.9 9.592-12.533-1.852-2.527L5.917 23.595l-.015 1.808 10.86 14.542z"/><path d="M21.997 6.503h-3.712l13.387 18.3-13.072 17.7h3.735L35.4 24.81z"/><path d="M29.175 6.503h-3.758l13.598 18.082-13.598 17.918h3.765l12.908-17.01v-1.808z"/>
  </symbol>
  <symbol id="zaraz" viewBox="0 0 48 48">
    <path d="M4 14h22v-4H4zm0 8h22v-4H4zm36 16H26v-4h14zm-14-8h14v-4H26zm34 24H26v-4h34zm-34-8h34v-4H26z"/>
  </symbol>
</svg>